<?xml version="1.0" standalone="no"?>
<!DOCTYPE svg PUBLIC "-//W3C//DTD SVG 20010904//EN"
 "http://www.w3.org/TR/2001/REC-SVG-20010904/DTD/svg10.dtd">
<svg version="1.0" xmlns="http://www.w3.org/2000/svg"
 width="300.000000pt" height="300.000000pt" viewBox="0 0 300.000000 300.000000"
 preserveAspectRatio="xMidYMid meet">
<metadata>
Created by potrace 1.14, written by Peter Selinger 2001-2017
</metadata>
<g transform="translate(0.000000,300.000000) scale(0.100000,-0.100000)"
fill="#000000" stroke="none">
<path d="M1215 2990 c-11 -4 -23 -6 -28 -3 -4 2 -20 -5 -35 -16 -26 -18 -32
-19 -68 -7 -137 46 -262 -63 -278 -244 -1 -14 -7 -34 -13 -45 -6 -11 -13 -33
-14 -50 -4 -26 -13 -35 -74 -65 l-70 -35 0 -305 c0 -168 3 -313 8 -322 4 -10
4 -18 0 -18 -4 0 -8 -13 -8 -30 0 -16 3 -30 7 -30 4 0 3 -11 -2 -25 -5 -14 -6
-25 -2 -25 4 0 7 -77 7 -171 0 -189 3 -201 57 -214 18 -4 36 -9 41 -10 4 -1
14 -3 23 -4 13 -1 15 -8 10 -33 -3 -18 -8 -51 -11 -73 -4 -22 -14 -51 -24 -65
-10 -14 -17 -35 -16 -48 1 -12 -1 -22 -4 -22 -8 0 -6 -140 3 -167 5 -16 27
-28 86 -48 43 -14 88 -27 99 -28 12 -1 21 -4 21 -8 0 -23 149 29 151 53 6 60
4 75 -18 96 -13 12 -29 22 -36 22 -34 1 -37 15 -17 81 11 35 27 90 35 121 18
64 8 61 128 32 4 -1 13 -2 21 -3 8 -1 18 -28 26 -79 9 -54 20 -82 34 -95 12
-10 22 -26 22 -35 1 -9 3 -26 4 -37 4 -37 0 -42 -25 -37 -19 3 -56 -14 -148
-70 -67 -41 -133 -81 -146 -89 -14 -8 -30 -18 -35 -22 -6 -4 -51 -34 -101 -66
-106 -69 -139 -97 -142 -119 -1 -9 -3 -32 -6 -50 -2 -18 0 -35 4 -38 5 -3 6
-11 2 -17 -18 -29 0 -213 23 -238 16 -18 81 -42 202 -75 l62 -17 60 37 59 37
78 -16 c43 -9 89 -19 103 -22 14 -3 30 -6 35 -7 6 -2 39 -9 73 -16 35 -7 66
-18 68 -24 5 -14 12 -56 13 -76 1 -25 103 -73 181 -86 8 -1 31 -7 50 -13 19
-6 40 -11 46 -11 10 0 131 76 144 90 3 4 66 48 140 100 74 52 140 99 147 105
6 5 50 37 97 70 47 33 89 69 93 80 8 26 11 274 2 300 -4 14 -24 24 -69 35
l-63 16 2 76 c2 77 -14 158 -32 158 -5 0 -6 10 -3 22 4 13 9 32 11 43 3 11 9
31 14 45 8 20 28 90 46 165 1 6 7 21 12 35 7 16 7 32 1 43 -6 11 -5 17 2 17 6
0 8 5 4 12 -4 7 -8 24 -9 39 -1 14 -6 39 -13 55 -6 16 -14 47 -17 69 -3 22 -7
51 -9 65 -2 14 -10 57 -16 95 -7 39 -14 94 -15 123 -2 29 -5 55 -8 58 -3 3 -1
19 3 35 6 19 5 29 -2 29 -6 0 -9 3 -5 6 3 3 1 18 -5 33 -6 15 -11 130 -12 283
-1 181 -5 260 -14 270 -10 13 -60 28 -142 42 -14 2 -81 16 -150 30 -69 15
-134 28 -145 31 -11 2 -45 9 -75 15 -30 6 -66 14 -80 16 -14 2 -53 9 -87 16
l-61 12 -7 45 c-6 49 -23 97 -40 120 -51 66 -120 105 -160 91z m36 -209 c8
-86 4 -121 -15 -121 -7 0 -11 30 -12 87 -1 75 0 84 12 68 8 -10 15 -26 15 -34z
m-222 -4 c-5 -17 -12 -54 -15 -82 -7 -55 -24 -86 -24 -42 0 15 -4 27 -9 27
-17 0 -19 26 -4 70 23 70 72 95 52 27z m905 -1308 c-11 -19 -5 -108 10 -137 8
-16 13 -31 11 -33 -2 -3 -6 -16 -8 -29 -3 -14 -8 -43 -12 -65 -8 -43 -12 -62
-20 -97 -7 -32 -13 -64 -26 -136 -8 -47 -8 -66 1 -77 10 -12 6 -18 -20 -33
-30 -19 -48 -19 -140 3 -8 2 -21 4 -28 4 -12 1 -11 40 2 116 3 17 8 56 10 88
3 33 12 64 21 73 8 9 15 18 16 22 0 4 2 14 4 22 13 52 36 152 40 173 9 43 18
54 73 88 53 34 80 41 66 18z"/>
</g>
</svg>
